<svg width="240" height="108" fill="none" xmlns="http://www.w3.org/2000/svg"><path d="M6.688 83.096a6.404 6.404 0 01-2.336-.416 5.623 5.623 0 01-1.856-1.2 5.609 5.609 0 01-1.232-1.808A5.865 5.865 0 01.832 77.4c0-.821.144-1.579.432-2.272a5.609 5.609 0 011.232-1.808 5.593 5.593 0 011.872-1.184 6.192 6.192 0 012.336-.432c.81 0 1.573.139 2.288.416a4.523 4.523 0 011.808 1.216l-.752.752a4.077 4.077 0 00-1.52-1.008 4.95 4.95 0 00-1.792-.32c-.672 0-1.296.117-1.872.352a4.31 4.31 0 00-1.504.976 4.578 4.578 0 00-1.008 1.472A4.676 4.676 0 002 77.4c0 .672.117 1.29.352 1.856a4.822 4.822 0 001.008 1.472c.427.416.928.741 1.504.976a5.12 5.12 0 001.872.336 4.95 4.95 0 001.792-.32 4.257 4.257 0 001.52-1.024l.752.752a4.669 4.669 0 01-1.808 1.232 6.314 6.314 0 01-2.304.416zM13.084 83v-8.4h1.088v2.288l-.112-.4c.235-.64.63-1.125 1.184-1.456.555-.341 1.243-.512 2.064-.512v1.104h-.128a.524.524 0 00-.128-.016c-.885 0-1.579.272-2.08.816-.501.533-.752 1.296-.752 2.288V83h-1.136zm6.72 3.184c-.394 0-.773-.064-1.136-.192a2.462 2.462 0 01-.912-.576l.528-.848c.214.203.443.357.688.464.256.117.539.176.848.176.374 0 .694-.107.96-.32.278-.203.539-.565.784-1.088l.544-1.232.128-.176 3.456-7.792h1.12l-4.208 9.408c-.234.544-.496.976-.784 1.296-.277.32-.581.544-.912.672-.33.139-.698.208-1.104.208zm2.24-2.944l-3.872-8.64h1.184l3.424 7.712-.736.928zm10.704-.16a3.938 3.938 0 01-1.968-.496 3.776 3.776 0 01-1.408-1.456c-.341-.64-.512-1.419-.512-2.336 0-.917.17-1.69.512-2.32.341-.64.805-1.125 1.392-1.456.587-.33 1.248-.496 1.984-.496.8 0 1.515.181 2.144.544.64.352 1.141.853 1.504 1.504.363.64.544 1.381.544 2.224 0 .853-.181 1.6-.544 2.24a3.918 3.918 0 01-1.504 1.504c-.63.363-1.344.544-2.144.544zm-4.336 3.024V74.6H29.5v2.528l-.112 1.68.16 1.696v5.6h-1.136zm4.256-4.032c.598 0 1.13-.133 1.6-.4.47-.277.843-.661 1.12-1.152.278-.501.416-1.077.416-1.728 0-.65-.139-1.221-.416-1.712a3.057 3.057 0 00-1.12-1.152 3.085 3.085 0 00-1.6-.416c-.597 0-1.136.139-1.616.416-.47.277-.843.661-1.12 1.152-.266.49-.4 1.061-.4 1.712 0 .65.134 1.227.4 1.728.277.49.65.875 1.12 1.152.48.267 1.019.4 1.616.4zm9.244 1.008c-.79 0-1.398-.213-1.824-.64-.427-.427-.64-1.03-.64-1.808v-7.888h1.136v7.824c0 .49.122.87.368 1.136.256.267.619.4 1.088.4.501 0 .917-.144 1.248-.432l.4.816a2.092 2.092 0 01-.816.448 3.22 3.22 0 01-.96.144zm-3.968-7.536V74.6h5.2v.944h-5.2zm10.939 7.536c-.81 0-1.541-.181-2.192-.544a4.154 4.154 0 01-1.52-1.52c-.373-.65-.56-1.392-.56-2.224 0-.843.187-1.584.56-2.224.373-.64.88-1.141 1.52-1.504s1.37-.544 2.192-.544c.832 0 1.568.181 2.208.544.65.363 1.157.864 1.52 1.504.373.64.56 1.381.56 2.224 0 .832-.187 1.573-.56 2.224a4 4 0 01-1.52 1.52c-.65.363-1.387.544-2.208.544zm0-1.008c.608 0 1.147-.133 1.616-.4.47-.277.837-.661 1.104-1.152.277-.501.416-1.077.416-1.728 0-.661-.139-1.237-.416-1.728a2.831 2.831 0 00-1.104-1.136 3.085 3.085 0 00-1.6-.416 3.09 3.09 0 00-1.6.416 2.94 2.94 0 00-1.12 1.136c-.277.49-.416 1.067-.416 1.728 0 .65.139 1.227.416 1.728.277.49.65.875 1.12 1.152.47.267.997.4 1.584.4zm6.14-2.912v-.992h4.191v.992h-4.191zm11.069 3.92c-.736 0-1.397-.165-1.984-.496a3.638 3.638 0 01-1.392-1.472c-.342-.64-.512-1.413-.512-2.32 0-.917.17-1.69.512-2.32.352-.64.821-1.125 1.408-1.456a3.937 3.937 0 011.968-.496c.8 0 1.514.181 2.144.544.64.352 1.141.848 1.504 1.488s.544 1.387.544 2.24c0 .843-.181 1.59-.544 2.24a3.919 3.919 0 01-1.504 1.504c-.63.363-1.344.544-2.144.544zM61.756 83V71.128h1.136v5.952l-.16 1.696.112 1.696V83h-1.088zm4.256-.928c.597 0 1.13-.133 1.6-.4.47-.277.843-.661 1.12-1.152.277-.501.416-1.077.416-1.728 0-.661-.139-1.237-.416-1.728a2.94 2.94 0 00-1.12-1.136 3.086 3.086 0 00-1.6-.416c-.597 0-1.136.139-1.616.416a2.94 2.94 0 00-1.12 1.136c-.267.49-.4 1.067-.4 1.728 0 .65.133 1.227.4 1.728.277.49.65.875 1.12 1.152.48.267 1.019.4 1.616.4zm10.012 1.008c-.811 0-1.542-.181-2.192-.544a4.155 4.155 0 01-1.52-1.52c-.374-.65-.56-1.392-.56-2.224 0-.843.186-1.584.56-2.224.373-.64.88-1.141 1.52-1.504s1.37-.544 2.192-.544c.832 0 1.568.181 2.208.544.65.363 1.157.864 1.52 1.504.373.64.56 1.381.56 2.224 0 .832-.187 1.573-.56 2.224a4 4 0 01-1.52 1.52c-.651.363-1.387.544-2.208.544zm0-1.008c.608 0 1.146-.133 1.616-.4a2.94 2.94 0 001.104-1.152c.277-.501.416-1.077.416-1.728 0-.661-.139-1.237-.416-1.728a2.83 2.83 0 00-1.104-1.136 3.085 3.085 0 00-1.6-.416c-.598 0-1.131.139-1.6.416a2.94 2.94 0 00-1.12 1.136c-.278.49-.416 1.067-.416 1.728 0 .65.138 1.227.416 1.728.277.49.65.875 1.12 1.152.469.267.997.4 1.584.4zm9.263 1.008c-.79 0-1.398-.213-1.824-.64-.427-.427-.64-1.03-.64-1.808v-7.888h1.136v7.824c0 .49.123.87.368 1.136.256.267.618.4 1.088.4.501 0 .917-.144 1.248-.432l.4.816a2.092 2.092 0 01-.816.448 3.22 3.22 0 01-.96.144zm-3.968-7.536V74.6h5.2v.944h-5.2zm17.791 6.912v-6.864h-4.048l-.096 1.872c-.021.565-.058 1.12-.112 1.664a8.881 8.881 0 01-.24 1.504c-.106.448-.261.816-.464 1.104a1.127 1.127 0 01-.784.48l-1.136-.208a.99.99 0 00.816-.352c.214-.256.379-.603.496-1.04a9.16 9.16 0 00.256-1.488 42.47 42.47 0 00.128-1.728l.112-2.8h6.208v7.856H99.11zm-7.232 2.576v-3.024h9.68v3.024h-1.072V83H92.95v2.032h-1.072zm10.358-2.048l.08-.976c.075.01.144.027.208.048.075.01.139.016.192.016a.985.985 0 00.816-.384c.214-.256.374-.597.48-1.024.107-.427.182-.907.224-1.44.043-.544.08-1.088.112-1.632l.144-2.992h6.16V83h-1.136v-7.744l.288.336h-4.576l.272-.352-.128 2.432c-.032.725-.09 1.419-.176 2.08a8.274 8.274 0 01-.368 1.744c-.16.501-.384.896-.672 1.184-.288.277-.656.416-1.104.416a2.64 2.64 0 01-.4-.032 9.4 9.4 0 01-.416-.08zm17.07.016v-3.024l.208.24h-2.848c-1.078 0-1.92-.235-2.528-.704-.608-.47-.912-1.152-.912-2.048 0-.96.325-1.675.976-2.144.65-.48 1.52-.72 2.608-.72h3.536V83h-1.04zm-6.144 0l2.304-3.232h1.184L114.394 83h-1.232zm6.144-3.36v-4.384l.208.336h-2.672c-.779 0-1.387.15-1.824.448-.427.299-.64.784-.64 1.456 0 1.248.794 1.872 2.384 1.872h2.752l-.208.272zM3.216 104v-7.712l.288.304H.032V95.6h7.504v.992H4.064l.288-.304V104H3.216zm9.028.08c-.81 0-1.541-.181-2.192-.544a4.152 4.152 0 01-1.52-1.52c-.373-.651-.56-1.392-.56-2.224 0-.843.187-1.584.56-2.224.373-.64.88-1.141 1.52-1.504s1.37-.544 2.192-.544c.832 0 1.568.181 2.208.544.65.363 1.157.864 1.52 1.504.373.64.56 1.381.56 2.224 0 .832-.187 1.573-.56 2.224a3.999 3.999 0 01-1.52 1.52c-.65.363-1.387.544-2.208.544zm0-1.008c.608 0 1.146-.133 1.616-.4.47-.277.837-.661 1.104-1.152.277-.501.416-1.077.416-1.728 0-.661-.139-1.237-.416-1.728a2.831 2.831 0 00-1.104-1.136 3.086 3.086 0 00-1.6-.416c-.598 0-1.13.139-1.6.416a2.94 2.94 0 00-1.12 1.136c-.277.49-.416 1.067-.416 1.728 0 .651.139 1.227.416 1.728.277.491.65.875 1.12 1.152.47.267.997.4 1.584.4zm11.052 1.008a3.934 3.934 0 01-1.968-.496 3.775 3.775 0 01-1.408-1.456c-.342-.64-.512-1.419-.512-2.336 0-.917.17-1.69.512-2.32.341-.64.805-1.125 1.392-1.456.586-.33 1.248-.496 1.984-.496.8 0 1.514.181 2.144.544.64.352 1.141.853 1.504 1.504.362.64.544 1.381.544 2.224 0 .853-.182 1.6-.544 2.24a3.921 3.921 0 01-1.504 1.504c-.63.363-1.344.544-2.144.544zm-4.336 3.024V95.6h1.088v2.528l-.112 1.68.16 1.696v5.6H18.96zm4.256-4.032c.597 0 1.13-.133 1.6-.4.47-.277.842-.661 1.12-1.152.277-.501.416-1.077.416-1.728 0-.65-.139-1.221-.416-1.712a3.059 3.059 0 00-1.12-1.152 3.086 3.086 0 00-1.6-.416c-.598 0-1.136.139-1.616.416-.47.277-.843.661-1.12 1.152-.267.49-.4 1.061-.4 1.712s.133 1.227.4 1.728c.277.491.65.875 1.12 1.152.48.267 1.018.4 1.616.4zm6.712.928v-8.4h5.952v.992h-5.104l.288-.288V104h-1.136zm10.66.08c-.811 0-1.542-.181-2.192-.544a4.153 4.153 0 01-1.52-1.52c-.374-.651-.56-1.392-.56-2.224 0-.843.186-1.584.56-2.224.373-.64.88-1.141 1.52-1.504s1.37-.544 2.192-.544c.832 0 1.568.181 2.208.544.65.363 1.157.864 1.52 1.504.373.64.56 1.381.56 2.224 0 .832-.187 1.573-.56 2.224a3.998 3.998 0 01-1.52 1.52c-.651.363-1.387.544-2.208.544zm0-1.008c.608 0 1.146-.133 1.616-.4a2.942 2.942 0 001.104-1.152c.277-.501.416-1.077.416-1.728 0-.661-.139-1.237-.416-1.728a2.83 2.83 0 00-1.104-1.136 3.085 3.085 0 00-1.6-.416c-.598 0-1.131.139-1.6.416a2.94 2.94 0 00-1.12 1.136c-.278.49-.416 1.067-.416 1.728 0 .651.138 1.227.416 1.728.277.491.65.875 1.12 1.152.469.267.997.4 1.584.4zm6.715.928v-8.4h3.713c.949 0 1.696.181 2.24.544.554.363.831.896.831 1.6 0 .683-.26 1.21-.784 1.584-.522.363-1.21.544-2.063.544l.224-.336c1.002 0 1.738.187 2.208.56.469.373.704.912.704 1.616 0 .725-.267 1.291-.8 1.696-.523.395-1.34.592-2.449.592h-3.824zm1.105-.896h2.672c.714 0 1.253-.112 1.616-.336.373-.235.56-.608.56-1.12 0-.512-.166-.885-.496-1.12-.331-.235-.854-.352-1.569-.352h-2.784v2.928zm0-3.776h2.527c.651 0 1.147-.123 1.488-.368.352-.245.529-.603.529-1.072 0-.47-.176-.821-.529-1.056-.34-.235-.837-.352-1.488-.352h-2.528v2.848zm7.094 4.656l.08-.976c.075.011.144.027.208.048.075.011.139.016.192.016a.987.987 0 00.816-.384c.213-.256.373-.597.48-1.024.107-.427.181-.907.224-1.44.042-.544.08-1.088.112-1.632l.144-2.992h6.16v8.4h-1.136v-7.744l.288.336h-4.576l.272-.352-.128 2.432c-.032.725-.09 1.419-.176 2.08a8.343 8.343 0 01-.368 1.744c-.16.501-.384.896-.672 1.184-.288.277-.656.416-1.104.416-.128 0-.261-.011-.4-.032a8.81 8.81 0 01-.416-.08zm11.645.016v-8.4h1.136v6.672L73.9 95.6h1.008v8.4h-1.136v-6.688l-5.6 6.688h-1.024zm15.203 0v-8.4h1.136v3.712h5.296V95.6h1.136v8.4h-1.136v-3.712h-5.296V104H82.35zm16.013 0v-1.856l-.048-.304v-3.104c0-.715-.202-1.264-.608-1.648-.394-.384-.986-.576-1.776-.576-.544 0-1.061.09-1.552.272-.49.181-.906.421-1.248.72l-.512-.848c.427-.363.939-.64 1.536-.832a5.835 5.835 0 011.888-.304c1.088 0 1.926.272 2.512.816.598.533.896 1.35.896 2.448V104h-1.088zm-2.896.08c-.63 0-1.178-.101-1.648-.304-.458-.213-.81-.501-1.056-.864a2.277 2.277 0 01-.368-1.28c0-.437.102-.832.304-1.184.214-.363.555-.65 1.024-.864.48-.224 1.12-.336 1.92-.336h2.896v.848h-2.864c-.81 0-1.376.144-1.696.432-.31.288-.464.645-.464 1.072 0 .48.187.864.56 1.152.374.288.896.432 1.568.432.64 0 1.19-.144 1.648-.432.47-.299.81-.725 1.024-1.28l.256.784a2.659 2.659 0 01-1.12 1.328c-.522.331-1.184.496-1.984.496zm12.46-5.856h5.92v1.024h-5.92v-1.024zm.128 5.776h-1.184V92.8h7.68v1.024h-6.496V104zm11.844.08c-.811 0-1.542-.181-2.192-.544a4.15 4.15 0 01-1.52-1.52c-.374-.651-.56-1.392-.56-2.224 0-.843.186-1.584.56-2.224.373-.64.88-1.141 1.52-1.504s1.37-.544 2.192-.544c.832 0 1.568.181 2.208.544.65.363 1.157.864 1.52 1.504.373.64.56 1.381.56 2.224 0 .832-.187 1.573-.56 2.224a4.005 4.005 0 01-1.52 1.52c-.651.363-1.387.544-2.208.544zm0-1.008c.608 0 1.146-.133 1.616-.4a2.942 2.942 0 001.104-1.152c.277-.501.416-1.077.416-1.728 0-.661-.139-1.237-.416-1.728a2.835 2.835 0 00-1.104-1.136 3.088 3.088 0 00-1.6-.416c-.598 0-1.131.139-1.6.416-.47.267-.843.645-1.12 1.136-.278.49-.416 1.067-.416 1.728 0 .651.138 1.227.416 1.728.277.491.65.875 1.12 1.152.469.267.997.4 1.584.4zm6.607.928v-8.4h1.088v2.288l-.112-.4c.235-.64.629-1.125 1.184-1.456.555-.341 1.243-.512 2.064-.512v1.104h-.128a.524.524 0 00-.128-.016c-.885 0-1.579.272-2.08.816-.501.533-.752 1.296-.752 2.288V104h-1.136zm9.787.08c-.875 0-1.643-.181-2.304-.544a4.076 4.076 0 01-1.552-1.52c-.374-.651-.56-1.392-.56-2.224 0-.832.176-1.568.528-2.208a3.98 3.98 0 011.472-1.504 4.06 4.06 0 012.112-.56c.789 0 1.488.181 2.096.544a3.736 3.736 0 011.456 1.504c.352.64.528 1.381.528 2.224 0 .053-.006.112-.016.176v.176h-7.312v-.848h6.704l-.448.336c0-.608-.134-1.147-.4-1.616a2.815 2.815 0 00-1.056-1.12c-.448-.267-.966-.4-1.552-.4-.576 0-1.094.133-1.552.4a2.78 2.78 0 00-1.072 1.12c-.256.48-.384 1.03-.384 1.648v.176c0 .64.138 1.205.416 1.696.288.48.682.859 1.184 1.136.512.267 1.093.4 1.744.4a3.69 3.69 0 001.424-.272 2.962 2.962 0 001.152-.832l.64.736a3.603 3.603 0 01-1.408 1.024 4.671 4.671 0 01-1.84.352zm4.574-.08l3.552-4.608-.016.56-3.376-4.352h1.28l2.768 3.6-.48-.016 2.768-3.584h1.248l-3.408 4.4.016-.608 3.584 4.608h-1.296l-2.928-3.84.448.064-2.88 3.776h-1.28z" fill="#fff"/><g clip-path="url(#clip0_178_2)" fill="#fff"><path d="M74.706 39.502H24.29c-2.691 0-4.888-.48-6.528-1.428-1.64-.946-2.97-2.126-3.926-3.494a12.22 12.22 0 01-1.963-4.526 22.284 22.284 0 01-.524-4.553c.018-1.532.194-3.058.524-4.555a12.22 12.22 0 011.963-4.528c.955-1.365 2.275-2.54 3.926-3.486 1.65-.945 3.841-1.429 6.528-1.429h50.415a5.636 5.636 0 002.223-.419 5.6 5.6 0 001.874-1.258 5.559 5.559 0 001.269-1.86c.29-.7.435-1.45.423-2.206a5.535 5.535 0 00-1.692-4.067A5.645 5.645 0 0074.706 0H21.723c-3.366 0-6.44.79-9.102 2.347a23.587 23.587 0 00-6.85 6.028 27.34 27.34 0 00-4.297 8.18A28.701 28.701 0 000 25.502a30.057 30.057 0 001.412 8.879 28.468 28.468 0 004.067 8.242 22.476 22.476 0 006.427 6.03c2.51 1.56 5.415 2.35 8.635 2.35H74.7c1.537 0 3.01-.606 4.096-1.684a5.726 5.726 0 001.697-4.065c0-1.524-.61-2.986-1.697-4.064a5.815 5.815 0 00-4.096-1.684l.005-.003z"/><path d="M78.806 21.428a5.644 5.644 0 00-4.098-1.676H25.58a5.806 5.806 0 00-4.103 1.677 5.724 5.724 0 00-1.255 1.868 5.687 5.687 0 00-.434 2.204 5.69 5.69 0 001.69 4.07 5.81 5.81 0 004.102 1.678h49.127a5.81 5.81 0 004.102-1.678 5.69 5.69 0 001.69-4.07 5.539 5.539 0 00-.424-2.206 5.576 5.576 0 00-1.266-1.86l-.002-.006zm85.723-19.812l-.012-.013a5.399 5.399 0 00-3.928-1.597c-1.69 0-3.127.693-4.276 2.062l-26.312 34.66a14.039 14.039 0 01-1.825 1.922c-1.498 1.348-3.082 1.349-4.582 0a23.776 23.776 0 01-1.937-1.922L95.576 2.178C94.5.726 93.022 0 91.186 0a5.413 5.413 0 00-3.93 1.605 5.304 5.304 0 00-1.61 3.898 4.921 4.921 0 00.464 2.129c.297.633.68 1.222 1.139 1.751l27.205 36.109a14.609 14.609 0 008.389 5.185c3.319.708 6.783.245 9.795-1.308a15.81 15.81 0 005.15-4.212L164.845 8.96l.123-.119c.771-.844 1.162-1.966 1.162-3.34a5.311 5.311 0 00-1.601-3.884zm75.009 41.754a7.843 7.843 0 00-1.139-1.753l-27.2-36.098a13.303 13.303 0 00-4.992-4.05 14.97 14.97 0 00-13.25.168c-2.106 1.082-3.821 2.5-5.097 4.211L160.668 42.16c-.772.844-1.17 1.966-1.17 3.34-.003.724.138 1.44.416 2.11a5.52 5.52 0 003.003 2.98 5.56 5.56 0 002.125.413c1.689 0 3.126-.693 4.275-2.06l26.321-34.671a14.016 14.016 0 011.825-1.92c1.498-1.347 3.082-1.345 4.58 0a25.026 25.026 0 011.938 1.921l26.082 34.549c1.073 1.452 2.551 2.178 4.391 2.178a5.555 5.555 0 003.927-1.605 5.455 5.455 0 001.618-3.898 4.95 4.95 0 00-.461-2.127z"/><path d="M199.752 42.71c3.193 0 5.782-2.569 5.782-5.738 0-3.169-2.589-5.738-5.782-5.738-3.194 0-5.782 2.57-5.782 5.738 0 3.17 2.588 5.738 5.782 5.738z"/></g><defs><clipPath id="clip0_178_2"><path fill="#fff" d="M0 0h240v51H0z"/></clipPath></defs></svg>